<?xml version="1.0" standalone="no"?>
<!DOCTYPE svg PUBLIC "-//W3C//DTD SVG 20010904//EN"
 "http://www.w3.org/TR/2001/REC-SVG-20010904/DTD/svg10.dtd">
<svg version="1.0" xmlns="http://www.w3.org/2000/svg"
 width="300.000000pt" height="296.000000pt" viewBox="0 0 300.000000 296.000000"
 preserveAspectRatio="xMidYMid meet">
<metadata>
Created by potrace 1.10, written by Peter Selinger 2001-2011
</metadata>
<g transform="translate(0.000000,296.000000) scale(0.100000,-0.100000)"
fill="#0121a8" stroke="none">
<path d="M1429 2856 c-3 -3 -19 -8 -35 -10 -50 -6 -207 -45 -249 -62 -239 -95
-439 -236 -573 -403 -136 -171 -205 -304 -271 -526 -22 -72 -51 -293 -51 -387
0 -71 34 -320 49 -360 4 -12 17 -48 26 -78 128 -392 455 -718 852 -849 81 -26
129 -38 253 -61 25 -5 108 -9 185 -9 222 0 419 46 618 145 412 205 659 552
731 1023 16 108 4 404 -22 506 -68 273 -185 482 -376 670 -201 199 -402 309
-681 374 -44 10 -87 19 -95 20 -45 6 -356 12 -361 7z m141 -81 c0 -23 3 -56 6
-73 5 -25 1 -36 -21 -57 -21 -22 -32 -26 -58 -21 -39 8 -45 14 -53 54 -6 29
-4 32 19 32 16 0 26 -7 30 -20 3 -11 10 -20 17 -20 8 0 9 20 4 69 -3 38 -4 73
0 79 3 5 17 7 31 4 22 -4 25 -9 25 -47z m-176 13 c33 -166 32 -178 -7 -178
-22 0 -25 6 -31 53 -4 28 -12 69 -18 90 -10 32 -9 40 3 48 25 16 48 10 53 -13z
m445 -4 c12 -15 21 -31 21 -35 0 -15 -43 -10 -62 8 -13 12 -21 14 -29 6 -8 -8
0 -17 30 -32 44 -23 60 -56 42 -89 -30 -56 -151 -27 -151 35 0 20 34 16 60 -7
21 -18 40 -19 40 -2 0 4 -18 17 -39 29 -47 27 -59 55 -37 88 13 20 25 25 61
25 35 0 47 -5 64 -26z m166 -25 c36 -12 65 -27 65 -33 -1 -25 -18 -39 -43 -32
-23 5 -27 2 -38 -32 -7 -20 -14 -39 -14 -42 -6 -32 -19 -51 -32 -46 -8 3 -19
6 -24 6 -14 0 -11 31 7 84 17 48 15 56 -18 68 -13 5 4 48 18 48 7 0 43 -10 79
-21z m-715 -3 c6 -8 10 -29 8 -46 -1 -17 3 -34 10 -39 14 -9 33 -67 24 -75 -3
-3 -15 -6 -28 -6 -16 0 -25 9 -33 31 -14 40 -37 33 -33 -11 1 -19 -3 -37 -10
-42 -16 -10 -49 -10 -46 0 1 4 -8 39 -20 79 -12 39 -22 77 -22 85 0 29 128 49
150 24z m-200 -56 c9 -17 6 -22 -25 -37 -19 -9 -35 -23 -35 -30 0 -17 5 -16
40 2 27 14 30 14 39 -4 11 -20 3 -32 -31 -44 -10 -4 -18 -11 -18 -17 0 -15 33
-12 58 6 22 15 24 15 37 -2 18 -25 14 -29 -55 -64 l-59 -30 -26 47 c-14 26
-34 66 -44 89 l-19 42 60 31 c34 17 62 31 64 31 2 0 8 -9 14 -20z m-162 -91
c12 -18 11 -23 -7 -36 -21 -14 -21 -15 20 -74 39 -57 40 -61 22 -74 -10 -8
-21 -15 -25 -15 -7 0 -59 66 -78 100 -7 12 -11 13 -21 3 -7 -7 -19 -13 -26
-13 -15 0 -40 43 -26 47 5 2 33 21 62 43 29 22 56 40 60 40 3 0 12 -9 19 -21z
m1406 -11 c29 -26 47 -98 25 -98 -21 1 -46 23 -50 44 -6 30 -26 30 -54 0 -32
-34 -30 -68 5 -72 21 -3 22 -2 11 11 -10 13 -9 17 7 26 16 8 25 6 45 -9 l25
-20 -25 -45 c-13 -25 -28 -45 -32 -45 -4 0 -16 9 -26 20 -10 11 -26 20 -35 20
-43 0 -69 73 -44 122 34 65 102 86 148 46z m-599 -11 c148 -16 337 -87 480
-182 90 -59 240 -209 302 -300 55 -82 126 -226 151 -307 48 -154 61 -373 31
-508 -5 -25 -11 -55 -13 -67 -16 -95 -84 -253 -158 -364 -53 -81 -236 -265
-308 -310 -131 -82 -255 -133 -390 -160 -89 -18 -324 -20 -410 -3 -284 54
-522 206 -702 449 -61 81 -127 207 -149 282 -9 33 -17 42 -40 47 -51 10 -68
95 -30 147 16 22 18 38 14 111 -8 123 12 288 47 398 126 389 428 665 824 755
38 8 71 14 73 11 2 -2 16 0 31 5 26 8 148 6 247 -4z m323 5 c9 -6 10 -15 3
-35 -8 -19 -15 -24 -31 -20 -26 7 -29 13 -19 41 9 23 25 28 47 14z m-1292
-138 c-19 -14 -19 -15 10 -46 16 -17 38 -39 48 -48 22 -19 17 -47 -10 -57 -11
-4 -30 9 -61 42 -40 45 -45 47 -67 35 -13 -7 -29 -9 -35 -6 -23 15 -9 46 41
91 l51 46 21 -21 c21 -21 21 -21 2 -36z m1784 -51 c0 -26 -31 -26 -59 1 -15
14 -30 26 -34 26 -16 0 -5 -23 19 -42 24 -19 24 -21 8 -39 -17 -19 -18 -19
-46 8 -19 18 -31 24 -38 17 -7 -7 0 -20 20 -39 33 -32 38 -50 14 -59 -10 -4
-33 11 -67 44 l-52 49 70 71 69 70 48 -47 c26 -26 48 -53 48 -60z m-1893 -82
c27 -22 55 -51 63 -66 13 -24 12 -30 -5 -63 -11 -20 -32 -43 -47 -52 -25 -13
-30 -13 -60 3 -18 10 -51 32 -72 50 -35 30 -38 35 -27 55 16 30 25 28 76 -14
43 -35 74 -41 82 -17 3 7 -20 31 -50 54 -53 41 -55 43 -40 66 8 13 19 23 23
23 4 0 30 -18 57 -39z m1975 8 c11 -6 26 -26 34 -45 12 -29 12 -39 0 -67 -17
-43 -61 -77 -97 -77 -38 0 -99 54 -99 87 0 78 94 138 162 102z m132 -196 c32
-65 36 -89 19 -113 -11 -16 -23 -21 -44 -18 -19 3 -29 0 -29 -8 0 -7 -15 -21
-32 -33 -31 -19 -34 -19 -45 -4 -19 24 -16 41 7 48 13 4 20 15 20 31 0 27 -11
30 -39 12 -23 -14 -51 4 -50 31 0 16 129 89 160 90 8 1 23 -16 33 -36z m-2209
-10 c41 -21 75 -42 75 -48 0 -6 -6 -19 -13 -29 -11 -16 -17 -17 -36 -6 -12 6
-29 9 -37 6 -22 -9 -16 -35 11 -48 25 -11 31 -32 16 -56 -12 -20 -181 65 -173
87 12 36 24 42 48 26 22 -14 24 -13 35 7 10 18 8 24 -6 34 -10 7 -22 15 -28
17 -12 4 9 47 23 47 5 0 43 -17 85 -37z m2274 -169 c48 -34 60 -115 20 -140
-18 -11 -39 24 -32 56 3 15 0 31 -6 34 -16 10 -78 -12 -85 -29 -6 -18 3 -45
15 -45 5 0 9 7 9 15 0 29 38 16 49 -16 12 -36 7 -49 -19 -49 -10 0 -21 -4 -25
-9 -3 -6 -14 -9 -25 -8 -18 1 -24 10 -21 30 0 4 -8 16 -19 27 -40 40 -17 109
44 136 42 18 67 17 95 -2z m-2389 -29 c0 -18 -7 -28 -25 -35 -31 -12 -32 -34
-3 -54 44 -31 99 -8 69 28 -13 16 -9 58 6 63 6 2 21 -9 33 -24 44 -56 6 -133
-68 -138 -32 -3 -47 3 -76 27 -30 24 -36 36 -36 67 0 46 37 91 75 91 20 0 25
-5 25 -25z m2476 -238 c4 -34 8 -66 8 -72 1 -5 -10 -10 -24 -10 -22 0 -25 5
-28 43 -4 54 -25 51 -26 -3 -1 -54 -31 -62 -40 -11 -10 51 -31 46 -31 -6 0
-31 -4 -43 -16 -46 -20 -4 -28 15 -36 90 l-6 58 49 1 c27 1 60 4 74 8 63 18
67 15 76 -52z m-2546 28 c0 -13 -7 -28 -17 -33 -11 -6 -14 -16 -9 -28 6 -16
11 -11 30 26 19 38 28 46 55 48 40 4 59 -11 67 -53 6 -33 -17 -95 -35 -95 -5
0 -16 -3 -25 -6 -21 -8 -21 17 0 58 9 18 12 34 7 39 -6 6 -17 -7 -28 -32 -39
-86 -120 -65 -117 31 2 56 72 100 72 45z m2063 -1155 c53 -62 48 -102 -19
-157 l-47 -38 -16 25 c-9 14 -35 49 -59 78 -24 30 -42 55 -40 57 2 2 22 17 43
34 55 41 104 42 138 1z m-1462 -19 c30 -30 38 -64 17 -77 -7 -4 -23 6 -40 26
-36 44 -47 32 -14 -17 32 -46 32 -51 4 -80 -30 -32 -72 -30 -109 6 -30 30 -39
74 -17 87 11 7 29 -11 54 -52 24 -39 27 -1 4 40 -23 42 -23 45 -7 70 24 37 69
35 108 -3z m97 -69 l22 -17 -29 -46 c-16 -25 -36 -62 -46 -82 -15 -33 -19 -35
-41 -25 -31 15 -30 31 7 91 17 27 35 60 40 73 10 28 17 29 47 6z m1119 -19 c3
-10 17 -37 30 -60 24 -41 26 -42 46 -28 28 20 53 19 61 -1 4 -9 5 -18 4 -19
-2 0 -26 -16 -54 -33 -28 -18 -55 -32 -60 -32 -5 0 -18 20 -28 43 -11 23 -31
59 -44 79 -20 31 -22 41 -12 53 17 20 49 19 57 -2z m-1033 -26 c14 -11 17 -24
15 -66 -4 -49 -3 -51 11 -30 39 60 44 63 81 50 19 -6 52 -13 74 -15 84 -9 122
-40 109 -91 -9 -36 -46 -58 -84 -50 -27 6 -30 4 -30 -19 0 -22 -4 -26 -30 -26
-29 0 -30 2 -26 33 19 158 19 158 -25 40 -25 -65 -33 -72 -63 -50 -18 13 -18
15 -1 41 10 14 15 29 12 33 -4 3 -14 -9 -24 -26 -12 -21 -24 -31 -38 -29 -22
3 -25 29 -10 82 6 21 5 27 -4 22 -6 -4 -11 -15 -11 -25 0 -31 -24 -54 -49 -46
-23 7 -23 18 4 80 8 17 21 47 29 68 16 39 31 45 60 24z m954 -23 c-1 -9 -16
-22 -33 -27 -37 -12 -39 -13 -30 -26 4 -8 15 -6 35 4 27 14 30 14 39 -3 12
-23 3 -37 -31 -46 -16 -3 -28 -11 -28 -16 0 -13 20 -13 60 1 26 9 34 9 41 -2
15 -24 11 -29 -38 -50 -96 -41 -96 -41 -126 49 -15 44 -27 86 -27 94 0 17 121
60 133 48 5 -4 7 -16 5 -26z m-162 -41 c-4 -9 -9 -53 -12 -97 -3 -46 -10 -84
-17 -88 -22 -14 -57 -8 -64 10 -4 9 -24 44 -45 77 -46 73 -47 85 -8 85 27 0
33 -6 54 -52 l24 -53 1 62 c1 64 6 71 50 72 18 1 22 -3 17 -16z m-336 -46 c0
-21 -5 -24 -37 -23 -50 1 -59 -18 -10 -22 33 -3 38 -6 35 -25 -2 -18 -11 -23
-41 -25 -24 -2 -37 -8 -34 -15 2 -7 20 -10 45 -8 39 2 42 1 42 -24 0 -26 0
-26 -72 -23 l-71 3 -1 93 -1 92 73 0 c69 0 72 -1 72 -23z m102 -44 c3 -63 5
-68 26 -69 12 -1 31 -2 43 -3 15 -1 20 -7 17 -23 -3 -21 -9 -23 -69 -26 l-67
-3 -5 33 c-4 18 -9 61 -13 96 l-7 62 36 0 36 0 3 -67z"/>
<path d="M1223 2723 c-21 -7 -15 -33 7 -33 11 0 20 6 20 14 0 18 -11 25 -27
19z"/>
<path d="M1335 2484 c-44 -14 -88 -29 -97 -35 -10 -5 -27 -9 -37 -9 -24 0
-159 -70 -209 -108 -100 -76 -272 -240 -272 -259 0 -19 18 -16 47 7 30 24 53
26 53 5 0 -8 -3 -15 -7 -15 -5 0 -23 -23 -42 -50 -37 -54 -57 -65 -47 -25 4
14 2 25 -4 25 -5 0 -10 -4 -10 -9 0 -5 -6 -16 -12 -23 -49 -52 -103 -217 -128
-393 -11 -77 -19 -151 -19 -165 2 -26 14 40 27 145 7 64 8 64 75 56 5 -1 6
-23 2 -51 l-7 -50 34 1 c30 2 30 2 6 6 -20 3 -28 10 -28 24 0 14 8 19 28 21
48 2 51 3 62 14 9 9 0 10 -33 7 -39 -5 -45 -3 -50 17 -5 18 5 33 42 69 100 97
200 127 310 91 35 -11 65 -20 67 -20 2 0 3 14 2 32 -3 27 1 32 27 40 47 15 84
11 168 -17 43 -14 97 -24 120 -24 39 1 37 2 -17 10 -33 5 -87 18 -120 30 -34
12 -77 21 -96 20 -81 -3 -97 -6 -93 -17 2 -7 -1 -15 -7 -19 -18 -11 -62 26
-85 71 -15 29 -27 40 -48 42 -35 4 -75 -20 -79 -49 -2 -12 -10 -23 -18 -25 -8
-2 -25 -6 -37 -10 -38 -11 -28 23 25 77 83 88 128 96 207 37 48 -36 55 -45 51
-67 -5 -24 -5 -24 7 -7 6 11 25 34 41 53 l28 33 32 -25 c17 -14 36 -29 41 -33
48 -37 229 -84 199 -52 -7 6 -30 13 -53 13 -25 1 -43 8 -46 17 -4 10 -8 11
-13 3 -5 -7 -15 -7 -32 -1 l-25 10 23 9 c12 4 22 11 22 13 0 3 -12 1 -26 -4
-27 -11 -48 -5 -39 11 4 5 -4 9 -16 9 -12 0 -19 3 -15 7 3 4 -3 12 -15 19
l-22 12 21 11 c18 10 22 9 22 -5 0 -10 5 -14 15 -10 8 3 19 -2 24 -12 6 -9 11
-14 11 -10 0 11 65 -19 66 -31 3 -24 5 -26 12 -13 7 10 17 9 51 -3 24 -8 52
-15 62 -15 23 0 25 -16 4 -24 -23 -9 -18 -24 10 -28 28 -3 35 -19 14 -29 -60
-29 -72 -31 -139 -27 -42 3 -66 2 -59 -3 8 -5 38 -9 67 -9 28 0 52 -3 52 -7 0
-5 -36 -28 -80 -52 -44 -25 -78 -46 -76 -49 3 -2 47 21 98 51 51 30 109 64
128 75 19 11 69 40 111 66 71 43 109 56 109 39 0 -8 -53 -40 -184 -111 -77
-42 -98 -63 -29 -28 59 29 70 32 54 13 -8 -10 -7 -14 4 -14 8 0 15 5 15 12 0
62 133 5 195 -84 23 -34 25 -42 14 -59 -11 -18 -8 -25 25 -62 21 -23 48 -63
60 -89 12 -26 27 -46 33 -44 6 2 30 -18 54 -44 27 -30 36 -37 24 -18 -19 31
-64 75 -77 75 -4 0 -17 19 -29 43 -12 23 -31 52 -42 64 -11 13 -19 24 -16 26
50 36 54 37 309 37 l250 0 0 33 c0 17 4 37 8 43 4 6 43 21 88 32 45 12 92 26
106 31 14 5 29 7 32 4 10 -10 7 2 -10 43 -26 66 -67 144 -75 144 -4 0 10 -34
32 -76 21 -41 39 -81 39 -89 0 -12 -60 -33 -116 -39 -11 -1 -24 -5 -30 -8 -5
-3 -21 -8 -36 -12 -25 -6 -28 -3 -34 28 -7 39 2 60 21 52 19 -7 23 11 39 164
15 145 14 155 -35 182 -16 10 -36 33 -46 52 -9 20 -20 36 -24 36 -4 0 -9 9
-12 20 -3 13 -14 20 -30 20 -13 0 -30 7 -37 15 -7 8 -31 24 -54 35 -22 11 -61
31 -86 45 -25 13 -70 31 -100 40 -30 9 -71 24 -90 35 -90 48 -148 59 -345 64
-138 4 -156 2 -230 -20z m275 -4 c0 -5 -9 -10 -20 -10 -11 0 -20 -6 -20 -14 0
-9 -22 -15 -77 -20 -111 -9 -193 -7 -193 4 0 6 6 11 13 11 18 2 28 4 62 11 17
4 66 10 110 13 44 4 82 9 84 11 9 8 41 4 41 -6z m105 -36 c-24 -35 -34 -94
-17 -94 5 0 7 13 4 28 -7 51 71 118 94 81 3 -6 22 -18 41 -25 29 -12 34 -19
31 -42 -4 -37 -81 -66 -153 -58 -44 5 -48 5 -32 -8 12 -9 14 -16 8 -21 -18
-10 -12 -25 9 -25 13 0 20 7 20 20 0 15 7 20 25 20 21 0 25 -5 25 -28 0 -15
11 -44 25 -64 l25 -36 -32 -11 c-37 -13 -78 -14 -97 -2 -9 6 -10 11 -2 15 8 5
8 13 1 27 -6 11 -15 17 -21 14 -5 -4 -9 -2 -9 4 0 6 -6 8 -13 6 -15 -7 -38 43
-35 78 3 40 18 33 18 -8 0 -29 4 -35 22 -35 20 0 20 1 5 18 -19 21 -22 42 -7
42 6 0 1 9 -10 20 -23 23 -24 27 -9 67 10 29 45 49 91 52 15 1 14 -4 -7 -35z
m-402 -54 c21 -4 43 -12 49 -18 11 -11 3 -63 -10 -61 -18 3 -26 -2 -14 -9 20
-14 -10 -61 -87 -135 -101 -98 -106 -82 -6 19 81 82 97 104 75 104 -5 0 -30
13 -56 29 -44 28 -45 30 -25 42 19 13 19 14 3 33 -16 18 -16 19 8 12 14 -4 42
-11 63 -16z m107 -46 c41 -28 101 -87 116 -116 16 -31 18 -42 5 -34 -5 3 -12
-15 -16 -40 -9 -61 -14 -74 -31 -74 -8 0 -14 -5 -14 -11 0 -5 -4 -8 -9 -5 -5
4 -7 -4 -3 -16 3 -14 2 -19 -6 -14 -8 5 -12 0 -12 -13 0 -17 -6 -21 -31 -21
-28 0 -31 3 -27 25 3 14 1 25 -3 25 -5 0 -9 8 -8 18 0 10 3 12 6 4 6 -15 23
-6 23 13 0 9 -6 12 -15 9 -18 -7 -20 7 -2 25 10 11 10 13 0 7 -9 -5 -13 0 -13
13 0 37 -15 22 -26 -24 -13 -55 -7 -105 12 -105 8 0 17 -7 20 -15 4 -8 16 -15
29 -15 13 0 25 -7 29 -15 3 -8 15 -15 26 -15 16 0 21 -5 18 -22 -3 -20 -8 -23
-42 -21 -41 3 -188 66 -207 90 -9 10 -2 21 31 51 36 32 43 44 45 80 l2 42 -21
-22 c-12 -13 -44 -38 -71 -57 -28 -19 -61 -47 -74 -63 -22 -26 -61 -39 -61
-20 0 14 46 53 53 45 4 -3 7 -1 7 5 0 6 -16 27 -36 46 -24 23 -31 36 -23 41 7
5 24 -7 44 -31 l32 -38 57 48 c31 27 56 53 56 58 0 5 4 7 8 4 10 -6 42 29 42
45 0 5 5 7 12 3 7 -5 9 -2 6 8 -4 8 2 30 13 47 10 17 19 40 19 51 0 24 8 25
40 4z m470 -59 c0 -23 5 -56 11 -74 6 -18 9 -34 7 -37 -12 -12 -80 30 -103 63
-37 56 -33 78 18 101 38 18 43 18 55 4 6 -9 12 -35 12 -57z m-625 23 c19 -13
35 -26 35 -30 0 -12 -6 -10 -57 22 -26 17 -39 30 -30 30 10 0 33 -10 52 -22z
m-35 -8 c17 -11 13 -16 -20 -25 -21 -5 -26 -3 -26 14 0 22 21 27 46 11z m53
-44 c5 -13 -114 -136 -132 -136 -4 0 -17 10 -29 23 l-22 23 31 42 c33 45 46
51 55 27 10 -25 53 -18 66 10 13 28 23 32 31 11z m1017 -10 c0 -12 -51 -51
-85 -65 -5 -2 -21 -12 -34 -22 -28 -23 -41 -24 -41 -5 0 8 24 30 53 48 93 62
107 68 107 44z m-738 -91 c6 -30 -14 -114 -29 -123 -6 -4 -15 -20 -18 -35 -8
-31 -25 -36 -25 -7 0 11 4 20 10 20 6 0 6 9 0 26 -13 33 -13 34 5 28 9 -4 15
0 15 9 0 9 5 28 12 44 6 15 10 36 9 46 -3 27 16 20 21 -8z m245 0 c-6 -17 -50
-35 -89 -35 -38 0 -53 12 -45 33 6 15 139 18 134 2z m299 -11 c11 3 28 -1 38
-9 19 -14 18 -15 -3 -32 -13 -11 -24 -34 -27 -58 -9 -65 -34 -115 -62 -122
-62 -15 -74 46 -23 117 19 27 31 55 31 75 0 35 10 51 21 34 3 -6 15 -9 25 -5z
m-1081 -4 c3 -6 -5 -10 -19 -10 -32 0 -42 -16 -14 -23 12 -4 19 -9 16 -13 -4
-3 -54 -1 -111 6 -96 11 -107 10 -133 -6 -27 -18 -27 -18 -15 3 23 45 49 53
163 53 60 0 110 -4 113 -10z m820 -9 c15 -25 -106 -77 -156 -66 -43 10 -36 40
11 41 49 2 91 11 104 24 12 12 33 13 41 1z m-743 -28 c25 -23 23 -37 -13 -67
-39 -33 -64 -20 -55 27 11 55 35 70 68 40z m791 8 c25 -10 25 -10 9 -45 -24
-50 -52 -48 -52 2 0 33 6 52 16 52 1 0 14 -4 27 -9z m157 -11 c0 -9 -45 -41
-113 -79 -119 -67 -147 -81 -157 -81 -25 0 -1 23 55 54 90 49 108 60 128 75
42 34 87 50 87 31z m-210 -34 c0 -13 3 -31 6 -40 8 -22 -61 -54 -111 -50 -22
1 -29 0 -15 -3 14 -3 28 -10 31 -15 10 -15 -2 -49 -14 -41 -6 4 -7 1 -3 -6 6
-9 -1 -11 -28 -5 -20 3 -49 2 -64 -4 -56 -21 -79 -22 -102 -4 -18 14 -21 25
-16 45 6 24 11 27 46 27 22 0 40 5 40 10 0 6 -7 10 -16 8 -30 -5 -25 17 9 50
33 32 35 33 76 20 22 -7 41 -16 41 -19 0 -10 -45 -37 -74 -45 -14 -3 -23 -10
-20 -15 3 -5 -3 -12 -13 -16 -10 -4 -21 -11 -25 -17 -11 -16 -10 -46 2 -46 6
0 10 7 10 15 0 24 38 55 68 56 15 0 22 3 15 5 -14 6 60 84 80 84 6 1 23 7 37
15 35 20 40 19 40 -9z m110 14 c0 -5 -9 -14 -20 -20 -15 -8 -20 -8 -20 3 0 8
3 17 7 20 10 10 33 8 33 -3z m51 -64 c-25 -39 -27 -84 -6 -92 25 -10 17 -21
-20 -27 -44 -7 -95 10 -95 31 0 10 -6 6 -15 -12 -8 -16 -29 -44 -45 -63 -17
-18 -30 -39 -30 -46 0 -6 10 3 23 20 12 18 27 33 34 33 6 0 22 -21 34 -46 23
-44 23 -47 6 -76 -9 -16 -17 -44 -17 -61 -1 -43 -27 -75 -69 -83 -31 -7 -34
-5 -26 12 5 10 10 39 11 64 2 32 1 38 -4 20 l-8 -25 -19 32 c-10 17 -29 37
-42 44 -31 17 -29 31 5 27 15 -2 26 -8 25 -14 -2 -9 4 -9 22 0 42 19 29 31
-32 27 -56 -3 -133 13 -133 27 0 4 30 25 68 47 37 21 91 53 120 72 29 19 61
35 72 36 11 1 20 5 20 9 0 5 8 12 18 15 9 4 37 19 61 35 58 37 67 35 42 -6z
m-524 -13 c-4 -3 -10 -3 -14 0 -3 4 0 7 7 7 7 0 10 -3 7 -7z m663 -39 c0 -42
-55 -107 -105 -125 -19 -7 -36 -21 -38 -31 -3 -11 -14 -18 -30 -18 -14 0 -31
-2 -39 -5 -8 -3 -22 11 -36 35 -18 31 -19 40 -8 40 8 0 22 -7 30 -16 9 -8 16
-11 16 -5 0 5 16 13 35 17 19 3 38 11 41 16 4 6 -1 8 -12 5 -70 -19 -123 -14
-132 12 -3 10 4 11 29 5 19 -4 57 -8 84 -8 41 -1 57 4 87 28 21 16 42 44 49
63 13 41 29 34 29 -13z m-1280 -135 c0 -18 -32 -38 -62 -39 -29 0 -33 6 -20
26 13 21 82 31 82 13z m1490 -134 l0 -75 -126 0 -126 0 63 68 c62 66 64 67
123 73 34 3 62 6 64 7 1 1 2 -32 2 -73z m-192 34 c12 0 22 -2 22 -5 0 -3 -22
-27 -50 -54 l-49 -50 -107 0 c-93 0 -105 2 -100 16 3 9 6 20 6 25 0 5 18 18
41 29 32 17 43 19 55 9 13 -10 12 -15 -7 -36 -31 -32 -15 -29 30 7 55 44 104
70 121 63 8 -3 25 -5 38 -4z"/>
<path d="M1300 2349 c0 -9 42 -19 52 -13 17 11 7 19 -22 19 -16 0 -30 -3 -30
-6z"/>
<path d="M1404 2217 c-1 -50 2 -74 7 -62 10 26 11 145 2 145 -5 0 -9 -37 -9
-83z"/>
<path d="M1370 2226 c0 -31 5 -56 10 -56 6 0 10 22 10 49 0 28 -4 53 -10 56
-6 4 -10 -15 -10 -49z"/>
<path d="M1481 2254 c0 -11 3 -14 6 -6 3 7 2 16 -1 19 -3 4 -6 -2 -5 -13z"/>
<path d="M1443 2216 c3 -47 17 -58 17 -13 0 20 -4 38 -9 42 -6 3 -9 -9 -8 -29z"/>
<path d="M1482 2160 c0 -14 2 -19 5 -12 2 6 2 18 0 25 -3 6 -5 1 -5 -13z"/>
<path d="M1431 2123 c-13 -47 -14 -81 -2 -67 9 9 24 104 16 104 -2 0 -9 -17
-14 -37z"/>
<path d="M1471 2123 c-1 -6 -4 -20 -7 -30 -5 -17 -5 -17 6 0 6 10 9 23 6 30
-3 9 -5 9 -5 0z"/>
<path d="M1415 2030 c-3 -5 -1 -10 4 -10 6 0 11 5 11 10 0 6 -2 10 -4 10 -3 0
-8 -4 -11 -10z"/>
<path d="M1056 2074 c-8 -21 -8 -24 5 -24 5 0 7 5 4 10 -3 6 3 10 14 10 12 0
21 5 21 10 0 16 -37 11 -44 -6z"/>
<path d="M1781 1734 c0 -11 3 -14 6 -6 3 7 2 16 -1 19 -3 4 -6 -2 -5 -13z"/>
<path d="M1155 1822 c-49 -6 -48 -17 0 -14 25 2 59 -1 77 -7 17 -6 33 -9 35
-7 9 8 -84 31 -112 28z"/>
<path d="M2611 1803 c0 -5 4 -17 9 -28 8 -18 9 -17 9 8 1 15 -3 27 -9 27 -5 0
-10 -3 -9 -7z"/>
<path d="M1468 1724 c-21 -13 -38 -27 -38 -29 0 -7 49 19 75 39 32 25 4 17
-37 -10z"/>
<path d="M1640 1683 c41 -39 71 -75 67 -79 -5 -5 -58 -9 -118 -9 -60 0 -109
-3 -109 -7 0 -9 179 -10 231 -2 l37 6 -70 69 c-38 38 -79 74 -91 81 -12 6 12
-21 53 -59z"/>
<path d="M2626 1733 c-6 -14 -5 -15 5 -6 7 7 10 15 7 18 -3 3 -9 -2 -12 -12z"/>
<path d="M835 1723 c-42 -22 -85 -64 -85 -82 0 -14 19 -16 148 -13 81 2 175
-1 207 -6 51 -8 65 -7 98 9 20 11 37 22 37 25 0 2 -9 0 -20 -6 -16 -9 -27 -7
-50 10 -23 17 -47 22 -103 23 -61 2 -78 6 -112 30 -45 31 -76 33 -120 10z"/>
<path d="M2596 1733 c-4 -4 -24 -13 -44 -20 l-37 -12 35 5 c19 4 39 7 44 8 9
1 28 -55 21 -62 -4 -4 -152 -41 -167 -42 -4 0 -9 12 -11 28 -4 25 -4 25 -6 -5
0 -22 -6 -33 -16 -33 -8 0 -15 -5 -15 -11 0 -5 5 -7 10 -4 13 8 13 -44 -1 -84
-6 -17 -17 -31 -25 -31 -17 0 -19 16 -3 26 7 4 7 9 2 13 -6 3 -15 20 -21 36
l-10 30 -2 -35 c-1 -19 -2 -40 -1 -47 1 -6 -3 -14 -9 -18 -5 -3 -10 0 -10 8 0
8 -6 17 -14 20 -8 3 -16 18 -19 34 -2 15 -4 3 -4 -27 -1 -30 1 -47 4 -37 2 9
9 17 15 17 5 0 8 -7 4 -15 -3 -9 3 -19 14 -25 15 -8 20 -8 20 1 0 7 10 9 25 7
22 -5 27 1 51 64 18 47 33 72 48 78 11 4 23 6 25 4 3 -3 -16 -121 -26 -158 -3
-10 -1 -16 4 -13 5 3 15 45 22 91 l13 86 50 15 c28 8 54 12 58 10 5 -3 11 -58
15 -122 4 -65 11 -131 16 -147 7 -25 1 -80 -17 -138 -3 -10 -2 -18 3 -18 5 0
17 39 26 87 14 66 15 88 6 94 -8 4 -16 59 -22 151 -6 78 -14 145 -18 148 -5 3
-12 16 -16 28 -5 13 -12 19 -17 15z"/>
<path d="M1404 1714 c-18 -14 -18 -15 4 -4 12 6 22 13 22 15 0 8 -5 6 -26 -11z"/>
<path d="M1320 1669 c-30 -17 -67 -40 -82 -50 -14 -10 -29 -19 -33 -19 -9 0
-145 -81 -145 -87 0 -3 19 6 43 20 23 14 62 36 87 49 129 71 207 119 190 118
-3 0 -30 -14 -60 -31z"/>
<path d="M2415 1684 c-29 -13 -29 -13 -5 -13 28 -1 57 14 44 21 -5 3 -22 -1
-39 -8z"/>
<path d="M2493 1693 c4 -3 10 -3 14 0 3 4 0 7 -7 7 -7 0 -10 -3 -7 -7z"/>
<path d="M1375 1663 c-22 -14 -31 -22 -20 -18 45 16 52 15 87 -9 22 -14 35
-19 32 -11 -3 8 -19 20 -35 27 -16 7 -27 19 -24 25 2 7 3 13 2 12 -1 0 -20
-12 -42 -26z"/>
<path d="M1331 1606 c-7 -8 -8 -22 -4 -33 7 -17 11 -18 33 -6 l25 13 -27 0
c-16 0 -28 5 -28 10 0 6 9 10 20 10 11 0 20 5 20 10 0 15 -26 12 -39 -4z"/>
<path d="M1075 1570 c-59 -35 -62 -36 -68 -12 -3 11 -5 8 -6 -9 -1 -19 -11
-31 -38 -45 -20 -10 -44 -25 -53 -32 -34 -28 -120 -72 -120 -62 0 6 -4 8 -10
5 -15 -10 -12 -23 7 -27 10 -2 28 7 40 18 13 12 39 25 59 28 19 4 32 11 29 15
-6 10 44 45 52 37 3 -3 13 4 22 15 9 10 50 37 91 59 41 22 68 39 60 39 -8 0
-37 -13 -65 -29z"/>
<path d="M2350 1590 c0 -7 3 -10 7 -7 3 4 3 10 0 14 -4 3 -7 0 -7 -7z"/>
<path d="M863 1580 c-13 -5 -23 -11 -23 -14 0 -7 40 6 46 15 6 10 6 10 -23 -1z"/>
<path d="M905 1580 c3 -5 8 -10 11 -10 3 0 2 5 -1 10 -3 6 -8 10 -11 10 -3 0
-2 -4 1 -10z"/>
<path d="M736 1555 c-3 -8 -1 -15 4 -15 6 0 10 7 10 15 0 8 -2 15 -4 15 -2 0
-6 -7 -10 -15z"/>
<path d="M1255 1530 c21 -22 41 -40 44 -40 3 0 -13 18 -34 40 -21 22 -41 40
-44 40 -3 0 13 -18 34 -40z"/>
<path d="M900 1540 c-8 -5 -28 -10 -45 -10 -22 0 -26 -3 -16 -9 9 -6 24 -5 39
0 18 7 28 6 34 -3 5 -9 8 -6 8 10 0 25 0 25 -20 12z"/>
<path d="M1377 1539 c-10 -6 -25 -8 -33 -5 -8 3 -14 0 -14 -5 0 -7 10 -9 28
-4 15 4 42 8 60 8 17 0 32 4 32 9 0 11 -52 9 -73 -3z"/>
<path d="M778 1523 c-28 -33 -31 -48 -4 -19 15 15 25 30 23 32 -2 2 -11 -4
-19 -13z"/>
<path d="M1467 1519 c4 -13 8 -18 11 -10 2 7 -1 18 -6 23 -8 8 -9 4 -5 -13z"/>
<path d="M1931 1526 c-7 -8 -11 -27 -9 -43 3 -25 7 -28 37 -28 38 0 54 25 40
63 -10 26 -50 30 -68 8z m57 -25 c5 -32 -11 -46 -37 -32 -24 13 -27 31 -9 49
19 19 43 10 46 -17z"/>
<path d="M799 1485 c-50 -37 -66 -116 -31 -148 26 -24 37 -22 90 16 25 17 64
41 86 52 22 11 41 26 42 33 1 7 0 8 -3 2 -5 -12 -24 -14 -22 -2 4 21 -3 31
-17 25 -13 -5 -13 -7 -2 -14 7 -5 9 -9 3 -9 -21 0 -78 -42 -67 -49 7 -4 4 -11
-10 -20 -19 -12 -20 -11 -14 4 5 15 4 16 -9 5 -11 -9 -13 -15 -5 -20 8 -5 6
-9 -5 -14 -26 -10 -42 -7 -25 4 11 8 8 10 -15 8 -29 -3 -30 -2 -29 36 2 29 10
47 33 69 37 37 54 28 20 -10 -14 -16 -7 -12 19 10 23 20 47 37 54 37 6 0 9 3
6 6 -4 3 -16 1 -27 -6 -14 -7 -21 -7 -21 0 0 16 -13 12 -51 -15z"/>
<path d="M1020 1495 c-14 -8 -20 -14 -14 -15 5 0 19 7 30 15 24 18 16 19 -16
0z"/>
<path d="M2033 1493 c-8 -3 -12 -22 -12 -51 1 -27 4 -36 6 -22 3 14 14 32 25
41 16 12 17 17 6 26 -7 6 -19 8 -25 6z"/>
<path d="M2140 1479 c0 -21 26 -26 33 -6 4 8 6 7 6 -3 1 -13 2 -13 11 0 9 13
12 13 24 -2 14 -19 56 -25 56 -8 0 6 -9 10 -19 10 -10 0 -21 6 -24 14 -3 8
-21 13 -46 13 -33 0 -41 -3 -41 -18z"/>
<path d="M2250 1490 c0 -5 7 -7 15 -4 8 4 15 8 15 10 0 2 -7 4 -15 4 -8 0 -15
-4 -15 -10z"/>
<path d="M1080 1485 c0 -2 10 -10 23 -16 20 -11 21 -11 8 4 -13 16 -31 23 -31
12z"/>
<path d="M1310 1485 c0 -5 18 -23 39 -42 22 -18 45 -49 51 -69 7 -19 14 -33
18 -30 11 11 -32 82 -69 115 -22 18 -39 30 -39 26z"/>
<path d="M1481 1474 c0 -11 3 -14 6 -6 3 7 2 16 -1 19 -3 4 -6 -2 -5 -13z"/>
<path d="M2080 1475 c0 -8 5 -15 10 -15 6 0 10 -12 10 -26 0 -14 -4 -23 -9
-19 -5 3 -12 1 -16 -5 -3 -5 3 -10 14 -10 23 0 23 -1 26 53 2 30 -1 37 -16 37
-11 0 -19 -7 -19 -15z"/>
<path d="M701 1455 c-19 -6 -39 -18 -45 -26 -6 -8 -24 -22 -39 -32 -16 -10
-26 -21 -22 -25 3 -4 9 -2 13 4 4 6 35 27 70 48 34 21 62 39 62 42 0 2 -1 3
-2 3 -2 -1 -18 -7 -37 -14z"/>
<path d="M1010 1450 c0 -5 6 -10 14 -10 8 0 21 -9 29 -20 8 -11 17 -17 20 -13
4 3 -8 17 -25 30 -36 26 -38 27 -38 13z"/>
<path d="M1080 1457 c0 -2 23 -19 52 -36 28 -18 45 -25 38 -16 -13 15 -90 60
-90 52z"/>
<path d="M1130 1458 c3 -3 28 -23 55 -43 29 -22 41 -28 28 -14 -12 13 -37 33
-55 43 -18 11 -31 17 -28 14z"/>
<path d="M1531 1444 c0 -11 3 -14 6 -6 3 7 2 16 -1 19 -3 4 -6 -2 -5 -13z"/>
<path d="M2564 1424 c4 -10 -1 -25 -10 -35 -16 -18 -16 -19 7 -19 20 0 24 5
26 35 2 27 -1 35 -13 35 -11 0 -14 -5 -10 -16z"/>
<path d="M2325 1398 c-4 -18 -14 -45 -21 -60 l-15 -28 -142 0 c-98 0 -147 4
-155 12 -16 16 -15 7 4 -31 9 -17 13 -38 11 -46 -4 -8 8 -24 29 -40 19 -14 41
-37 50 -49 18 -29 55 -236 47 -267 -5 -18 -3 -21 10 -16 9 3 18 -1 21 -9 9
-23 8 -24 -14 -21 -30 5 -49 37 -49 82 l1 40 14 -35 c9 -22 12 -26 9 -10 -2
14 -5 33 -5 42 0 9 -6 23 -14 30 -8 8 -16 23 -19 34 -3 10 -5 -6 -4 -38 1 -31
-1 -54 -5 -51 -11 6 -10 -5 2 -27 7 -13 7 -21 -1 -25 -6 -4 -13 3 -16 15 -4
16 -8 18 -14 8 -7 -10 -11 -7 -15 10 -4 12 -12 22 -20 22 -24 0 -33 36 -33
130 0 51 -2 94 -4 97 -3 2 -16 -7 -30 -21 -68 -68 -204 -91 -268 -45 -30 21
-32 21 -24 3 27 -65 34 -95 35 -147 0 -58 -12 -97 -30 -97 -18 0 -61 55 -72
94 -11 34 -13 36 -20 16 -7 -18 -13 -20 -37 -15 -25 5 -29 4 -25 -13 3 -10 -2
-24 -10 -31 -9 -8 -16 -18 -16 -23 0 -6 8 0 18 12 16 20 19 20 31 7 9 -12 10
-21 1 -37 -6 -12 -9 -24 -6 -27 10 -10 27 51 21 74 -4 18 -1 23 14 23 27 0 36
-17 19 -37 -10 -13 -10 -15 0 -9 13 8 42 -9 42 -25 0 -14 -40 -10 -41 4 0 6
-5 -1 -10 -17 -4 -17 -6 -32 -4 -35 3 -2 5 1 5 8 0 7 6 11 13 8 7 -3 21 1 30
8 19 13 57 9 57 -6 0 -5 -10 -9 -22 -9 -19 0 -20 -2 -8 -10 8 -6 27 -7 41 -4
19 3 28 0 33 -11 8 -21 -20 -31 -39 -15 -12 10 -15 10 -15 -3 0 -24 -74 -19
-113 7 -18 12 -40 25 -49 29 -10 3 -18 15 -18 26 0 10 -7 21 -15 25 -26 10
-16 -15 20 -51 19 -19 38 -46 41 -59 6 -23 50 -67 76 -77 10 -3 10 -9 1 -24
-10 -18 -9 -20 14 -20 15 0 32 -8 38 -17 17 -23 38 -20 30 4 -8 25 11 26 43 4
13 -9 26 -14 29 -10 13 13 -10 38 -50 55 -24 11 -54 32 -66 47 l-22 28 62 13
61 12 45 -44 c25 -25 51 -45 59 -45 7 0 20 -15 28 -34 8 -18 19 -37 25 -40 16
-10 13 -43 -4 -50 -12 -4 -178 0 -203 6 -4 1 -19 -4 -33 -11 -21 -10 -42 -11
-97 -2 -39 6 -89 11 -111 11 -29 0 -41 4 -41 14 0 8 -9 18 -20 21 -11 4 -18
11 -15 16 9 14 47 11 66 -7 22 -20 46 -9 28 12 -9 11 -8 14 4 14 9 0 21 -9 27
-20 6 -11 15 -18 21 -15 20 13 7 37 -36 64 -33 21 -61 29 -115 34 -116 10
-172 55 -154 124 7 24 46 48 66 40 11 -4 13 2 10 23 -5 35 35 80 71 80 23 0
54 -26 75 -65 11 -19 11 -19 12 2 0 12 8 38 17 58 15 32 20 35 60 35 35 0 43
3 43 18 0 10 -3 22 -7 26 -11 11 -43 99 -43 119 0 10 13 32 29 48 24 24 38 29
76 29 27 0 44 4 40 9 -3 6 -28 7 -57 4 -42 -5 -53 -3 -64 12 -8 11 -14 26 -14
34 0 14 2 14 11 1 9 -12 9 -11 4 5 -4 11 -8 25 -8 31 0 6 -6 11 -14 11 -10 0
-12 -10 -7 -36 4 -20 10 -40 15 -46 15 -16 10 -44 -10 -55 -27 -14 -30 -13
-41 13 l-9 22 0 -24 c-1 -22 -4 -23 -38 -16 -21 5 -49 9 -62 10 -42 3 -34 22
14 35 40 11 45 16 45 41 l0 29 -76 0 -76 0 7 -40 c5 -32 4 -40 -9 -40 -8 0
-20 8 -25 18 -9 14 -10 14 -11 2 0 -11 -12 -16 -42 -18 -24 -1 -52 -3 -63 -6
-11 -2 -26 1 -32 7 -9 6 -13 5 -13 -4 0 -11 -2 -11 -10 1 -6 10 -10 11 -10 3
0 -24 -18 -13 -34 22 -15 30 -15 41 -5 70 9 25 10 40 2 57 -10 20 -11 18 -6
-14 5 -32 3 -38 -13 -39 -11 0 -34 -1 -52 -2 -37 -2 -40 3 -12 21 11 7 20 17
20 24 0 6 -9 2 -21 -10 -27 -30 -139 -82 -174 -82 -23 0 -26 -3 -17 -12 19
-19 14 -46 -13 -64 -14 -9 -23 -19 -21 -22 3 -2 16 2 30 11 23 16 24 15 30
-14 3 -17 10 -28 16 -24 14 8 50 -4 50 -17 0 -6 -11 -8 -27 -4 -16 3 -38 8
-50 11 -19 5 -20 3 -10 -20 7 -13 13 -20 15 -15 2 6 15 10 28 10 19 0 24 -5
24 -25 0 -14 -4 -25 -10 -25 -24 0 -122 52 -146 77 l-26 28 7 -30 c10 -42 47
-145 52 -145 3 0 2 14 -2 30 -4 17 -5 30 -2 30 16 0 160 -40 165 -46 4 -4 -6
-4 -23 0 -28 6 -29 5 -11 -9 28 -22 16 -26 -29 -10 -22 8 -48 14 -57 15 -34 0
-17 -18 32 -36 28 -10 50 -22 50 -27 0 -5 -6 -7 -14 -4 -8 3 -31 9 -52 13 -41
7 -40 5 6 -55 155 -198 233 -276 280 -279 14 -1 50 -9 80 -18 30 -9 72 -16 93
-15 22 0 48 -4 60 -11 12 -6 35 -11 52 -10 16 1 50 -6 75 -15 25 -8 50 -16 57
-17 7 -1 16 -5 19 -9 4 -4 16 -7 27 -7 10 0 21 -9 24 -20 3 -11 11 -20 18 -20
6 0 22 -8 34 -19 18 -16 35 -18 134 -15 61 2 128 8 147 14 19 6 58 15 86 20
55 9 167 59 265 117 67 40 213 188 265 270 57 89 136 253 138 285 0 17 -5 33
-11 35 -7 3 -13 -3 -13 -12 0 -39 -71 -157 -83 -138 -3 5 1 34 9 64 8 30 16
61 19 69 2 8 12 35 23 60 11 25 22 61 26 80 l6 35 -14 -37 c-42 -109 -75 -174
-98 -194 -25 -24 -28 -17 -15 39 8 35 8 50 0 55 -10 7 -6 49 11 122 5 18 2 16
-9 -8 -17 -35 -39 -34 -30 1 3 12 -6 -2 -19 -30 -14 -29 -39 -67 -56 -85 l-31
-33 7 30 c4 17 13 40 21 51 9 15 12 35 7 63 -5 33 -3 42 11 47 10 4 26 2 36
-5 17 -10 19 -8 19 24 0 19 -3 35 -8 35 -16 0 -72 -60 -72 -77 0 -23 -48 -100
-78 -127 -17 -14 -22 -16 -22 -5 -1 23 74 159 88 159 6 0 12 11 12 25 0 37
-27 31 -35 -7z m102 -5 c-4 -3 -10 -3 -14 0 -3 4 0 7 7 7 7 0 10 -3 7 -7z
m-1637 -123 c0 -5 -2 -10 -4 -10 -3 0 -8 5 -11 10 -3 6 -1 10 4 10 6 0 11 -4
11 -10z m406 -56 c-6 -15 -4 -15 10 -3 19 15 43 21 63 14 11 -4 11 -8 0 -23
-13 -16 -12 -16 7 1 37 31 77 18 47 -16 -17 -18 -17 -18 13 -1 17 10 38 15 48
11 16 -6 16 -8 -1 -30 -20 -27 -70 -30 -111 -8 -13 7 -35 11 -50 10 -51 -4
-92 1 -92 11 0 6 9 19 20 30 25 25 55 27 46 4z m-66 -3 c0 -21 -13 -41 -27
-41 -9 0 -13 -6 -10 -14 3 -8 2 -27 -2 -43 -7 -26 -12 -28 -59 -30 -48 -2 -51
-1 -54 25 -2 21 -9 28 -30 30 -16 2 -28 -1 -28 -7 0 -6 12 -11 26 -11 40 0 28
-34 -14 -38 -25 -3 -32 1 -33 15 -1 17 -2 17 -6 1 -7 -26 -53 -24 -53 2 0 15
7 20 24 20 25 0 33 6 73 54 13 14 27 26 32 26 15 0 23 -18 11 -25 -5 -3 -10
-12 -10 -18 0 -7 10 3 21 21 14 21 29 32 45 32 21 0 22 -2 13 -23 -6 -13 -23
-29 -37 -34 -25 -10 -26 -11 -4 -12 13 -1 22 -8 23 -18 1 -17 2 -17 6 0 2 9 9
17 14 17 6 0 8 8 5 18 -8 23 27 62 54 62 11 0 20 -4 20 -9z m319 -85 c-20 -16
-21 -18 -4 -12 45 18 53 18 65 -4 10 -18 9 -22 -9 -27 -12 -3 -21 -9 -21 -15
0 -5 10 -3 22 3 18 10 24 8 35 -7 19 -26 12 -48 -17 -52 -18 -3 -33 6 -62 40
-33 38 -38 41 -52 28 -14 -13 -13 -15 10 -16 33 -2 40 -10 24 -29 -11 -13 -10
-14 4 -9 25 10 31 -23 11 -64 -16 -34 -18 -35 -31 -18 -9 13 -10 24 -4 37 13
24 12 39 -1 16 -16 -27 -42 -2 -34 32 5 24 4 25 -9 8 -12 -16 -15 -16 -29 -2
-9 8 -22 15 -29 15 -29 0 -40 17 -33 49 6 26 11 31 36 31 18 0 29 -5 29 -14 0
-8 9 -12 23 -11 32 4 32 4 13 18 -18 13 -17 15 9 35 25 20 28 20 52 5 l25 -17
-23 -20z m-541 32 c-5 -15 -48 -24 -48 -10 0 14 12 22 33 22 10 0 17 -5 15
-12z m257 -30 c-4 -18 -11 -37 -16 -42 -17 -18 -9 -22 31 -19 44 3 90 -11 90
-28 0 -22 -56 -88 -100 -117 -25 -16 -67 -37 -95 -47 -27 -10 -64 -29 -82 -42
-17 -13 -34 -20 -36 -16 -3 5 -4 32 -3 60 1 48 -1 52 -19 47 -11 -4 -27 -13
-36 -20 -20 -18 -29 -18 -29 0 0 40 139 153 210 171 20 5 26 12 25 33 0 18 8
30 25 39 37 19 42 16 35 -19z m66 0 l0 -23 9 23 c18 43 46 21 35 -28 -6 -29
-8 -30 -48 -24 -53 8 -61 16 -53 48 9 35 56 38 57 4z m710 -91 c-17 -17 -24
-1 -10 25 12 21 14 21 17 4 2 -10 -1 -23 -7 -29z m-38 -9 c15 -7 27 -17 27
-22 0 -5 8 -15 17 -22 20 -14 12 -31 -9 -18 -7 5 -20 9 -28 9 -8 0 -15 8 -15
18 0 18 -21 37 -42 37 -7 0 -13 -5 -13 -11 0 -5 4 -8 9 -5 12 8 41 -4 41 -16
0 -5 -10 -9 -22 -8 -47 4 -59 -1 -77 -31 -13 -22 -17 -42 -13 -75 2 -24 2 -44
-1 -44 -18 0 -37 14 -37 29 0 13 -2 13 -9 2 -11 -16 -31 -6 -31 16 0 10 6 13
16 9 14 -5 15 -4 5 8 -28 34 13 117 64 129 39 9 91 7 118 -5z m194 -55 c-4 -3
-7 0 -7 7 0 7 3 10 7 7 3 -4 3 -10 0 -14z m-207 -12 c0 -5 -19 -23 -42 -40
-23 -17 -36 -31 -29 -31 7 0 9 -5 6 -11 -8 -12 23 -38 45 -38 25 0 52 46 49
84 -2 19 0 37 4 41 4 4 7 2 7 -4 0 -7 6 -12 14 -12 8 0 17 -4 20 -9 9 -14 -15
-71 -30 -71 -8 0 -13 -5 -11 -12 4 -19 -47 -39 -83 -32 -62 13 -61 85 2 124
36 22 48 25 48 11z m-185 -111 c3 -5 -1 -10 -9 -10 -9 0 -16 5 -16 10 0 6 4
10 9 10 6 0 13 -4 16 -10z m49 -16 c19 -7 9 -34 -14 -34 -18 0 -34 23 -23 34
8 8 17 8 37 0z"/>
<path d="M1340 1080 c0 -7 3 -10 7 -7 3 4 3 10 0 14 -4 3 -7 0 -7 -7z"/>
<path d="M1194 1048 c-4 -7 -3 -8 4 -4 12 7 16 16 8 16 -3 0 -8 -5 -12 -12z"/>
<path d="M1214 1038 c-4 -7 -3 -8 4 -4 12 7 16 16 8 16 -3 0 -8 -5 -12 -12z"/>
<path d="M1047 1022 c-19 -21 -22 -48 -7 -57 7 -4 9 2 5 18 -5 18 -2 28 12 35
10 6 15 13 12 16 -3 4 -13 -2 -22 -12z"/>
<path d="M1207 991 c-36 -37 -67 -57 -120 -77 -76 -29 -121 -54 -113 -61 2 -3
15 2 28 11 12 8 50 25 83 37 33 12 72 30 87 41 24 16 95 98 86 98 -2 0 -25
-22 -51 -49z"/>
<path d="M1114 995 c1 -18 4 -31 9 -28 10 6 9 51 -1 57 -5 3 -8 -10 -8 -29z"/>
<path d="M1066 1001 c-3 -5 1 -14 9 -21 13 -10 15 -9 15 9 0 21 -14 28 -24 12z"/>
<path d="M1785 1010 c4 -6 11 -8 16 -5 14 9 11 15 -7 15 -8 0 -12 -5 -9 -10z"/>
<path d="M1756 975 c4 -8 9 -15 13 -15 4 0 8 7 8 15 0 8 -6 15 -13 15 -8 0
-11 -6 -8 -15z"/>
<path d="M1735 930 c3 -5 8 -10 11 -10 3 0 2 5 -1 10 -3 6 -8 10 -11 10 -3 0
-2 -4 1 -10z"/>
<path d="M1753 883 c4 -3 10 -3 14 0 3 4 0 7 -7 7 -7 0 -10 -3 -7 -7z"/>
<path d="M1940 920 c0 -7 3 -10 7 -7 3 4 3 10 0 14 -4 3 -7 0 -7 -7z"/>
<path d="M2503 1416 c-4 -7 -18 -18 -30 -25 -32 -16 -29 -33 3 -19 21 10 27 9
35 -3 10 -16 10 -16 14 29 3 33 -8 42 -22 18z"/>
<path d="M645 1390 c-10 -11 -13 -20 -7 -20 7 0 12 -8 13 -17 0 -13 3 -12 10
5 5 13 18 26 29 29 28 7 25 23 -3 23 -13 0 -32 -9 -42 -20z"/>
<path d="M1497 1389 c4 -13 8 -18 11 -10 2 7 -1 18 -6 23 -8 8 -9 4 -5 -13z"/>
<path d="M1520 1380 c0 -11 4 -20 9 -20 5 0 7 9 4 20 -3 11 -7 20 -9 20 -2 0
-4 -9 -4 -20z"/>
<path d="M1190 1389 c0 -3 10 -17 23 -31 12 -14 27 -34 34 -44 6 -11 12 -14
12 -8 1 6 -15 28 -34 50 -19 21 -34 36 -35 33z"/>
<path d="M683 1360 c3 -11 0 -20 -6 -20 -6 0 -7 -3 -4 -6 9 -9 37 15 37 32 0
8 -7 14 -16 14 -11 0 -15 -6 -11 -20z"/>
<path d="M1104 1355 c-10 -8 -14 -15 -8 -15 5 0 15 5 21 11 9 9 19 8 40 -6
l28 -18 -19 21 c-22 26 -35 27 -62 7z"/>
<path d="M576 1345 c-9 -26 -7 -32 5 -12 6 10 9 21 6 23 -2 3 -7 -2 -11 -11z"/>
<path d="M631 1340 c-1 -17 17 -40 31 -40 4 0 8 5 8 10 0 6 -6 10 -14 10 -8 0
-17 8 -19 18 -4 13 -5 13 -6 2z"/>
<path d="M1260 1340 c0 -7 3 -10 7 -7 3 4 3 10 0 14 -4 3 -7 0 -7 -7z"/>
<path d="M1120 1315 c0 -8 7 -15 15 -15 8 0 15 7 15 15 0 8 -7 15 -15 15 -8 0
-15 -7 -15 -15z"/>
<path d="M1091 1309 c-1 -19 26 -45 36 -35 3 3 1 6 -6 6 -6 0 -16 10 -21 23
-6 15 -9 17 -9 6z"/>
<path d="M1960 1288 c0 -9 5 -20 10 -23 13 -8 13 5 0 25 -8 13 -10 13 -10 -2z"/>
<path d="M1148 1273 c7 -3 16 -2 19 1 4 3 -2 6 -13 5 -11 0 -14 -3 -6 -6z"/>
<path d="M610 1258 c7 -10 9 -18 4 -18 -5 0 -9 -16 -9 -35 0 -29 2 -33 11 -20
7 9 10 26 8 38 -3 16 0 14 10 -8 9 -18 15 -23 16 -13 0 9 -12 30 -26 45 -15
15 -21 20 -14 11z"/>
<path d="M2022 1139 c6 -16 13 -28 15 -25 8 8 -6 56 -17 56 -5 0 -5 -13 2 -31z"/>
<path d="M1878 1140 c-56 -19 -76 -35 -33 -24 33 8 85 32 85 39 0 3 -1 4 -2 4
-2 -1 -24 -9 -50 -19z"/>
<path d="M1630 1140 c0 -7 3 -10 7 -7 3 4 3 10 0 14 -4 3 -7 0 -7 -7z"/>
<path d="M1610 1135 c0 -5 5 -17 10 -25 5 -8 10 -10 10 -5 0 6 -5 17 -10 25
-5 8 -10 11 -10 5z"/>
<path d="M2050 1135 c0 -5 5 -17 10 -25 5 -8 10 -10 10 -5 0 6 -5 17 -10 25
-5 8 -10 11 -10 5z"/>
<path d="M1592 1070 c0 -19 2 -27 5 -17 2 9 2 25 0 35 -3 9 -5 1 -5 -18z"/>
<path d="M2003 1050 c0 -30 2 -43 4 -27 2 15 2 39 0 55 -2 15 -4 2 -4 -28z"/>
<path d="M2037 1094 c-4 -4 -7 -14 -7 -23 0 -11 3 -12 11 -4 6 6 10 16 7 23
-2 6 -7 8 -11 4z"/>
<path d="M1632 1070 c0 -14 2 -19 5 -12 2 6 2 18 0 25 -3 6 -5 1 -5 -13z"/>
<path d="M2067 1084 c-6 -10 9 -42 16 -34 3 3 1 14 -3 24 -3 11 -9 15 -13 10z"/>
<path d="M2036 1032 c-4 -13 -5 -26 -2 -29 10 -11 18 4 14 29 l-4 23 -8 -23z"/>
<path d="M1642 1015 c0 -16 2 -22 5 -12 2 9 2 23 0 30 -3 6 -5 -1 -5 -18z"/>
<path d="M1600 1020 c0 -7 3 -10 7 -7 3 4 3 10 0 14 -4 3 -7 0 -7 -7z"/>
<path d="M2062 980 c0 -19 2 -27 5 -17 2 9 2 25 0 35 -3 9 -5 1 -5 -18z"/>
<path d="M715 990 c3 -5 8 -10 11 -10 3 0 2 5 -1 10 -3 6 -8 10 -11 10 -3 0
-2 -4 1 -10z"/>
<path d="M1610 991 c0 -5 5 -13 10 -16 6 -3 10 -2 10 4 0 5 -4 13 -10 16 -5 3
-10 2 -10 -4z"/>
<path d="M2030 973 c0 -13 5 -23 10 -23 13 0 13 11 0 30 -8 12 -10 11 -10 -7z"/>
<path d="M2010 960 c0 -7 3 -10 7 -7 3 4 3 10 0 14 -4 3 -7 0 -7 -7z"/>
<path d="M1300 844 c0 -8 71 -36 78 -30 2 3 -4 8 -14 11 -10 4 -27 11 -36 16
-20 10 -28 11 -28 3z"/>
<path d="M1610 810 c0 -7 3 -10 7 -7 3 4 3 10 0 14 -4 3 -7 0 -7 -7z"/>
<path d="M1180 541 c0 -10 30 -24 37 -17 3 2 -5 9 -16 16 -12 6 -21 7 -21 1z"/>
<path d="M1380 530 c0 -5 5 -10 11 -10 5 0 7 5 4 10 -3 6 -8 10 -11 10 -2 0
-4 -4 -4 -10z"/>
<path d="M1330 500 c0 -5 5 -10 11 -10 5 0 7 5 4 10 -3 6 -8 10 -11 10 -2 0
-4 -4 -4 -10z"/>
<path d="M1503 503 c4 -3 10 -3 14 0 3 4 0 7 -7 7 -7 0 -10 -3 -7 -7z"/>
<path d="M2552 2264 c-28 -20 -26 -58 3 -62 12 -2 31 8 44 22 42 44 4 76 -47
40z"/>
<path d="M2703 2092 c-10 -6 -10 -12 1 -28 17 -23 41 -8 30 19 -7 19 -13 20
-31 9z"/>
<path d="M2335 530 c-8 -13 45 -82 59 -77 21 7 17 45 -5 66 -25 23 -44 27 -54
11z"/>
<path d="M1350 296 c0 -8 4 -17 9 -20 11 -7 33 18 24 27 -12 12 -33 7 -33 -7z"/>
</g>
</svg>
